<mxfile host="app.diagrams.net" modified="2024-02-14T12:45:14.879Z" agent="Mozilla/5.0 (Macintosh; Intel Mac OS X 10_15_7) AppleWebKit/605.1.15 (KHTML, like Gecko) Version/15.4 Safari/605.1.15" etag="_elsrjzFERUtE4YgICTK" version="23.1.4" type="google">
  <diagram name="Sida-1" id="J6gJxQ5m7RRqywbdpWK8">
    <mxGraphModel grid="1" page="1" gridSize="10" guides="1" tooltips="1" connect="1" arrows="1" fold="1" pageScale="1" pageWidth="827" pageHeight="1169" math="0" shadow="0">
      <root>
        <mxCell id="0" />
        <mxCell id="1" parent="0" />
        <mxCell id="Iw1DIzwXRPO4TeAjE_ug-1" value="&lt;i&gt;Car&lt;br&gt;(abstract)&lt;br&gt;&lt;/i&gt;" style="swimlane;fontStyle=1;align=center;verticalAlign=top;childLayout=stackLayout;horizontal=1;startSize=40;horizontalStack=0;resizeParent=1;resizeParentMax=0;resizeLast=0;collapsible=1;marginBottom=0;whiteSpace=wrap;html=1;" vertex="1" parent="1">
          <mxGeometry x="330" y="280" width="190" height="530" as="geometry" />
        </mxCell>
        <mxCell id="Iw1DIzwXRPO4TeAjE_ug-2" value="- nrDoors: int&lt;br&gt;- enginePower: double&lt;br&gt;- currentSpeed: double&lt;br&gt;- color: Color&lt;br&gt;- modelName: String&lt;br&gt;- x: double&lt;br&gt;- y: double&lt;br&gt;- direction: double&lt;br&gt;- size: CarSize" style="text;strokeColor=none;fillColor=none;align=left;verticalAlign=top;spacingLeft=4;spacingRight=4;overflow=hidden;rotatable=0;points=[[0,0.5],[1,0.5]];portConstraint=eastwest;whiteSpace=wrap;html=1;" vertex="1" parent="Iw1DIzwXRPO4TeAjE_ug-1">
          <mxGeometry y="40" width="190" height="130" as="geometry" />
        </mxCell>
        <mxCell id="Iw1DIzwXRPO4TeAjE_ug-3" value="" style="line;strokeWidth=1;fillColor=none;align=left;verticalAlign=middle;spacingTop=-1;spacingLeft=3;spacingRight=3;rotatable=0;labelPosition=right;points=[];portConstraint=eastwest;strokeColor=inherit;" vertex="1" parent="Iw1DIzwXRPO4TeAjE_ug-1">
          <mxGeometry y="170" width="190" height="8" as="geometry" />
        </mxCell>
        <mxCell id="Iw1DIzwXRPO4TeAjE_ug-4" value="+ Car(int, double, Color, String, double, double, CarSize)&lt;br&gt;+ getNrDoors(): int&lt;br&gt;+ enginePower(): double&lt;br&gt;+ getModelName(): String&lt;br&gt;+ getCurrentSpeed(): double&lt;br&gt;+ getColor(): Color&lt;br&gt;+ setColor(Color): void&lt;br&gt;+ getSize(): CarSize&lt;br&gt;+ startEngine(): void&lt;br&gt;+ stopEngine(): void&lt;br&gt;#&amp;nbsp;&lt;i&gt;speedFactor&lt;/i&gt;(): double&lt;br&gt;+ incrementSpeed(double): void&lt;br&gt;+ decrementSpeed(double): void&lt;br&gt;+ gas(double): void&lt;br&gt;+ brake(double): void&lt;br&gt;+ move(): void&lt;br&gt;+ getX(): double&lt;br&gt;+ getY(): double&lt;br&gt;# setX(double): void&lt;br&gt;# setY(double): void&lt;br&gt;# setDirection(double): void&lt;br&gt;+ turnLeft(): void&lt;br&gt;+ turnRight(): void" style="text;strokeColor=none;fillColor=none;align=left;verticalAlign=top;spacingLeft=4;spacingRight=4;overflow=hidden;rotatable=0;points=[[0,0.5],[1,0.5]];portConstraint=eastwest;whiteSpace=wrap;html=1;" vertex="1" parent="Iw1DIzwXRPO4TeAjE_ug-1">
          <mxGeometry y="178" width="190" height="352" as="geometry" />
        </mxCell>
        <mxCell id="Iw1DIzwXRPO4TeAjE_ug-8" value="CarSize" style="swimlane;fontStyle=0;childLayout=stackLayout;horizontal=1;startSize=26;fillColor=none;horizontalStack=0;resizeParent=1;resizeParentMax=0;resizeLast=0;collapsible=1;marginBottom=0;whiteSpace=wrap;html=1;" vertex="1" parent="1">
          <mxGeometry x="40" y="300" width="140" height="80" as="geometry" />
        </mxCell>
        <mxCell id="Iw1DIzwXRPO4TeAjE_ug-9" value="SMALL&lt;br&gt;MEDIUM&lt;br&gt;LARGE" style="text;strokeColor=none;fillColor=none;align=left;verticalAlign=top;spacingLeft=4;spacingRight=4;overflow=hidden;rotatable=0;points=[[0,0.5],[1,0.5]];portConstraint=eastwest;whiteSpace=wrap;html=1;" vertex="1" parent="Iw1DIzwXRPO4TeAjE_ug-8">
          <mxGeometry y="26" width="140" height="54" as="geometry" />
        </mxCell>
        <mxCell id="Iw1DIzwXRPO4TeAjE_ug-12" value="" style="endArrow=open;endFill=1;endSize=12;html=1;rounded=0;exitX=0;exitY=0.955;exitDx=0;exitDy=0;exitPerimeter=0;entryX=0.957;entryY=1.074;entryDx=0;entryDy=0;entryPerimeter=0;" edge="1" parent="1" source="Iw1DIzwXRPO4TeAjE_ug-2" target="Iw1DIzwXRPO4TeAjE_ug-9">
          <mxGeometry width="160" relative="1" as="geometry">
            <mxPoint x="330" y="630" as="sourcePoint" />
            <mxPoint x="160" y="500" as="targetPoint" />
          </mxGeometry>
        </mxCell>
        <mxCell id="Iw1DIzwXRPO4TeAjE_ug-22" value="«interface»&lt;br&gt;Movable" style="swimlane;fontStyle=0;childLayout=stackLayout;horizontal=1;startSize=26;fillColor=none;horizontalStack=0;resizeParent=1;resizeParentMax=0;resizeLast=0;collapsible=1;marginBottom=0;whiteSpace=wrap;html=1;" vertex="1" parent="1">
          <mxGeometry x="580" y="160" width="140" height="86" as="geometry" />
        </mxCell>
        <mxCell id="Iw1DIzwXRPO4TeAjE_ug-26" value="move(): void&lt;br&gt;turnRight(): void&lt;br&gt;turnLeft(): void" style="text;html=1;align=left;verticalAlign=middle;resizable=0;points=[];autosize=1;strokeColor=none;fillColor=none;" vertex="1" parent="Iw1DIzwXRPO4TeAjE_ug-22">
          <mxGeometry y="26" width="140" height="60" as="geometry" />
        </mxCell>
        <mxCell id="Iw1DIzwXRPO4TeAjE_ug-27" value="" style="endArrow=block;dashed=1;endFill=0;endSize=12;html=1;rounded=0;exitX=0.537;exitY=-0.002;exitDx=0;exitDy=0;exitPerimeter=0;entryX=0.557;entryY=1.017;entryDx=0;entryDy=0;entryPerimeter=0;" edge="1" parent="1" source="Iw1DIzwXRPO4TeAjE_ug-1" target="Iw1DIzwXRPO4TeAjE_ug-26">
          <mxGeometry width="160" relative="1" as="geometry">
            <mxPoint x="560" y="250" as="sourcePoint" />
            <mxPoint x="720" y="250" as="targetPoint" />
          </mxGeometry>
        </mxCell>
        <mxCell id="JPbPp24o7M2_uj4HTOKJ-6" value="&lt;i&gt;Truck&lt;br&gt;(abstract&lt;/i&gt;)" style="swimlane;fontStyle=1;align=center;verticalAlign=top;childLayout=stackLayout;horizontal=1;startSize=40;horizontalStack=0;resizeParent=1;resizeParentMax=0;resizeLast=0;collapsible=1;marginBottom=0;whiteSpace=wrap;html=1;" vertex="1" parent="1">
          <mxGeometry x="520" y="920" width="160" height="120" as="geometry" />
        </mxCell>
        <mxCell id="JPbPp24o7M2_uj4HTOKJ-7" value="+ attachment: Attachment" style="text;strokeColor=none;fillColor=none;align=left;verticalAlign=top;spacingLeft=4;spacingRight=4;overflow=hidden;rotatable=0;points=[[0,0.5],[1,0.5]];portConstraint=eastwest;whiteSpace=wrap;html=1;" vertex="1" parent="JPbPp24o7M2_uj4HTOKJ-6">
          <mxGeometry y="40" width="160" height="26" as="geometry" />
        </mxCell>
        <mxCell id="JPbPp24o7M2_uj4HTOKJ-8" value="" style="line;strokeWidth=1;fillColor=none;align=left;verticalAlign=middle;spacingTop=-1;spacingLeft=3;spacingRight=3;rotatable=0;labelPosition=right;points=[];portConstraint=eastwest;strokeColor=inherit;" vertex="1" parent="JPbPp24o7M2_uj4HTOKJ-6">
          <mxGeometry y="66" width="160" height="8" as="geometry" />
        </mxCell>
        <mxCell id="JPbPp24o7M2_uj4HTOKJ-9" value="+ Truck(attachment)&lt;br&gt;+ speedFactor: double" style="text;strokeColor=none;fillColor=none;align=left;verticalAlign=top;spacingLeft=4;spacingRight=4;overflow=hidden;rotatable=0;points=[[0,0.5],[1,0.5]];portConstraint=eastwest;whiteSpace=wrap;html=1;" vertex="1" parent="JPbPp24o7M2_uj4HTOKJ-6">
          <mxGeometry y="74" width="160" height="46" as="geometry" />
        </mxCell>
        <mxCell id="JPbPp24o7M2_uj4HTOKJ-10" value="Extends" style="endArrow=block;endSize=16;endFill=0;html=1;rounded=0;entryX=0.795;entryY=1.006;entryDx=0;entryDy=0;entryPerimeter=0;exitX=0.5;exitY=0;exitDx=0;exitDy=0;" edge="1" parent="1" source="JPbPp24o7M2_uj4HTOKJ-6" target="Iw1DIzwXRPO4TeAjE_ug-4">
          <mxGeometry width="160" relative="1" as="geometry">
            <mxPoint x="330" y="910" as="sourcePoint" />
            <mxPoint x="490" y="910" as="targetPoint" />
          </mxGeometry>
        </mxCell>
        <mxCell id="JPbPp24o7M2_uj4HTOKJ-11" value="Scania" style="swimlane;fontStyle=1;align=center;verticalAlign=top;childLayout=stackLayout;horizontal=1;startSize=26;horizontalStack=0;resizeParent=1;resizeParentMax=0;resizeLast=0;collapsible=1;marginBottom=0;whiteSpace=wrap;html=1;" vertex="1" parent="1">
          <mxGeometry x="750" y="1140" width="160" height="84" as="geometry" />
        </mxCell>
        <mxCell id="JPbPp24o7M2_uj4HTOKJ-13" value="" style="line;strokeWidth=1;fillColor=none;align=left;verticalAlign=middle;spacingTop=-1;spacingLeft=3;spacingRight=3;rotatable=0;labelPosition=right;points=[];portConstraint=eastwest;strokeColor=inherit;" vertex="1" parent="JPbPp24o7M2_uj4HTOKJ-11">
          <mxGeometry y="26" width="160" height="8" as="geometry" />
        </mxCell>
        <mxCell id="JPbPp24o7M2_uj4HTOKJ-14" value="+ raisePlatform(): void&lt;br&gt;+ lowerPlatform(): void" style="text;strokeColor=none;fillColor=none;align=left;verticalAlign=top;spacingLeft=4;spacingRight=4;overflow=hidden;rotatable=0;points=[[0,0.5],[1,0.5]];portConstraint=eastwest;whiteSpace=wrap;html=1;" vertex="1" parent="JPbPp24o7M2_uj4HTOKJ-11">
          <mxGeometry y="34" width="160" height="50" as="geometry" />
        </mxCell>
        <mxCell id="JPbPp24o7M2_uj4HTOKJ-15" value="Extends" style="endArrow=block;endSize=16;endFill=0;html=1;rounded=0;entryX=0.604;entryY=1.145;entryDx=0;entryDy=0;entryPerimeter=0;exitX=0.25;exitY=0;exitDx=0;exitDy=0;" edge="1" parent="1" source="JPbPp24o7M2_uj4HTOKJ-11" target="JPbPp24o7M2_uj4HTOKJ-9">
          <mxGeometry width="160" relative="1" as="geometry">
            <mxPoint x="310" y="1050" as="sourcePoint" />
            <mxPoint x="470" y="1050" as="targetPoint" />
          </mxGeometry>
        </mxCell>
        <mxCell id="JPbPp24o7M2_uj4HTOKJ-16" value="CarTransporter&amp;lt;T&amp;gt;" style="swimlane;fontStyle=1;align=center;verticalAlign=top;childLayout=stackLayout;horizontal=1;startSize=26;horizontalStack=0;resizeParent=1;resizeParentMax=0;resizeLast=0;collapsible=1;marginBottom=0;whiteSpace=wrap;html=1;" vertex="1" parent="1">
          <mxGeometry x="210" y="1144" width="250" height="170" as="geometry" />
        </mxCell>
        <mxCell id="JPbPp24o7M2_uj4HTOKJ-17" value="# loadable: Loadable&amp;lt;T&amp;gt;" style="text;strokeColor=none;fillColor=none;align=left;verticalAlign=top;spacingLeft=4;spacingRight=4;overflow=hidden;rotatable=0;points=[[0,0.5],[1,0.5]];portConstraint=eastwest;whiteSpace=wrap;html=1;" vertex="1" parent="JPbPp24o7M2_uj4HTOKJ-16">
          <mxGeometry y="26" width="250" height="24" as="geometry" />
        </mxCell>
        <mxCell id="JPbPp24o7M2_uj4HTOKJ-18" value="" style="line;strokeWidth=1;fillColor=none;align=left;verticalAlign=middle;spacingTop=-1;spacingLeft=3;spacingRight=3;rotatable=0;labelPosition=right;points=[];portConstraint=eastwest;strokeColor=inherit;" vertex="1" parent="JPbPp24o7M2_uj4HTOKJ-16">
          <mxGeometry y="50" width="250" height="8" as="geometry" />
        </mxCell>
        <mxCell id="JPbPp24o7M2_uj4HTOKJ-19" value="+ CarTransporter(Int, Color, double, double)&lt;br&gt;+ raiseFlatbed(): void&lt;br&gt;+ lowerFlatbed(): void&lt;br&gt;+ load(T): void&lt;br&gt;+ unload: T&lt;br&gt;+ move(): void&lt;br&gt;+ nrOfLoadedCars: int" style="text;strokeColor=none;fillColor=none;align=left;verticalAlign=top;spacingLeft=4;spacingRight=4;overflow=hidden;rotatable=0;points=[[0,0.5],[1,0.5]];portConstraint=eastwest;whiteSpace=wrap;html=1;" vertex="1" parent="JPbPp24o7M2_uj4HTOKJ-16">
          <mxGeometry y="58" width="250" height="112" as="geometry" />
        </mxCell>
        <mxCell id="JPbPp24o7M2_uj4HTOKJ-20" value="Extends" style="endArrow=block;endSize=16;endFill=0;html=1;rounded=0;entryX=0;entryY=0.5;entryDx=0;entryDy=0;" edge="1" parent="1" target="JPbPp24o7M2_uj4HTOKJ-9">
          <mxGeometry x="0.0052" width="160" relative="1" as="geometry">
            <mxPoint x="440" y="1140" as="sourcePoint" />
            <mxPoint x="561" y="1042" as="targetPoint" />
            <mxPoint as="offset" />
            <Array as="points">
              <mxPoint x="440" y="1040" />
            </Array>
          </mxGeometry>
        </mxCell>
        <mxCell id="JPbPp24o7M2_uj4HTOKJ-21" value="Volvo240" style="swimlane;fontStyle=1;align=center;verticalAlign=top;childLayout=stackLayout;horizontal=1;startSize=26;horizontalStack=0;resizeParent=1;resizeParentMax=0;resizeLast=0;collapsible=1;marginBottom=0;whiteSpace=wrap;html=1;" vertex="1" parent="1">
          <mxGeometry x="-40" y="990" width="160" height="86" as="geometry" />
        </mxCell>
        <mxCell id="JPbPp24o7M2_uj4HTOKJ-22" value="+ trimCar: TrimBehaviour" style="text;strokeColor=none;fillColor=none;align=left;verticalAlign=top;spacingLeft=4;spacingRight=4;overflow=hidden;rotatable=0;points=[[0,0.5],[1,0.5]];portConstraint=eastwest;whiteSpace=wrap;html=1;" vertex="1" parent="JPbPp24o7M2_uj4HTOKJ-21">
          <mxGeometry y="26" width="160" height="26" as="geometry" />
        </mxCell>
        <mxCell id="JPbPp24o7M2_uj4HTOKJ-23" value="" style="line;strokeWidth=1;fillColor=none;align=left;verticalAlign=middle;spacingTop=-1;spacingLeft=3;spacingRight=3;rotatable=0;labelPosition=right;points=[];portConstraint=eastwest;strokeColor=inherit;" vertex="1" parent="JPbPp24o7M2_uj4HTOKJ-21">
          <mxGeometry y="52" width="160" height="8" as="geometry" />
        </mxCell>
        <mxCell id="JPbPp24o7M2_uj4HTOKJ-24" value="+ speedFactor: double" style="text;strokeColor=none;fillColor=none;align=left;verticalAlign=top;spacingLeft=4;spacingRight=4;overflow=hidden;rotatable=0;points=[[0,0.5],[1,0.5]];portConstraint=eastwest;whiteSpace=wrap;html=1;" vertex="1" parent="JPbPp24o7M2_uj4HTOKJ-21">
          <mxGeometry y="60" width="160" height="26" as="geometry" />
        </mxCell>
        <mxCell id="JPbPp24o7M2_uj4HTOKJ-25" value="Extends" style="endArrow=block;endSize=16;endFill=0;html=1;rounded=0;exitX=0.5;exitY=0;exitDx=0;exitDy=0;entryX=0.392;entryY=0.997;entryDx=0;entryDy=0;entryPerimeter=0;" edge="1" parent="1" source="JPbPp24o7M2_uj4HTOKJ-21" target="Iw1DIzwXRPO4TeAjE_ug-4">
          <mxGeometry width="160" relative="1" as="geometry">
            <mxPoint x="310" y="850" as="sourcePoint" />
            <mxPoint x="400" y="820" as="targetPoint" />
          </mxGeometry>
        </mxCell>
        <mxCell id="JPbPp24o7M2_uj4HTOKJ-26" value="" style="endArrow=open;endFill=1;endSize=12;html=1;rounded=0;exitX=-0.021;exitY=0.801;exitDx=0;exitDy=0;exitPerimeter=0;" edge="1" parent="1" source="JPbPp24o7M2_uj4HTOKJ-22" target="JPbPp24o7M2_uj4HTOKJ-27">
          <mxGeometry width="160" relative="1" as="geometry">
            <mxPoint x="20" y="950" as="sourcePoint" />
            <mxPoint x="80" y="960" as="targetPoint" />
            <Array as="points">
              <mxPoint x="-80" y="1100" />
            </Array>
          </mxGeometry>
        </mxCell>
        <mxCell id="JPbPp24o7M2_uj4HTOKJ-27" value="TrimBehaviour" style="swimlane;fontStyle=1;align=center;verticalAlign=top;childLayout=stackLayout;horizontal=1;startSize=26;horizontalStack=0;resizeParent=1;resizeParentMax=0;resizeLast=0;collapsible=1;marginBottom=0;whiteSpace=wrap;html=1;" vertex="1" parent="1">
          <mxGeometry x="-220" y="1200" width="170" height="110" as="geometry" />
        </mxCell>
        <mxCell id="JPbPp24o7M2_uj4HTOKJ-28" value="+ trimFactor: double" style="text;strokeColor=none;fillColor=none;align=left;verticalAlign=top;spacingLeft=4;spacingRight=4;overflow=hidden;rotatable=0;points=[[0,0.5],[1,0.5]];portConstraint=eastwest;whiteSpace=wrap;html=1;" vertex="1" parent="JPbPp24o7M2_uj4HTOKJ-27">
          <mxGeometry y="26" width="170" height="26" as="geometry" />
        </mxCell>
        <mxCell id="JPbPp24o7M2_uj4HTOKJ-29" value="" style="line;strokeWidth=1;fillColor=none;align=left;verticalAlign=middle;spacingTop=-1;spacingLeft=3;spacingRight=3;rotatable=0;labelPosition=right;points=[];portConstraint=eastwest;strokeColor=inherit;" vertex="1" parent="JPbPp24o7M2_uj4HTOKJ-27">
          <mxGeometry y="52" width="170" height="8" as="geometry" />
        </mxCell>
        <mxCell id="JPbPp24o7M2_uj4HTOKJ-30" value="+ TrimmedBehaviour(double)&lt;br&gt;+ getTrim(): double" style="text;strokeColor=none;fillColor=none;align=left;verticalAlign=top;spacingLeft=4;spacingRight=4;overflow=hidden;rotatable=0;points=[[0,0.5],[1,0.5]];portConstraint=eastwest;whiteSpace=wrap;html=1;" vertex="1" parent="JPbPp24o7M2_uj4HTOKJ-27">
          <mxGeometry y="60" width="170" height="50" as="geometry" />
        </mxCell>
        <mxCell id="JPbPp24o7M2_uj4HTOKJ-31" value="Saab95" style="swimlane;fontStyle=1;align=center;verticalAlign=top;childLayout=stackLayout;horizontal=1;startSize=26;horizontalStack=0;resizeParent=1;resizeParentMax=0;resizeLast=0;collapsible=1;marginBottom=0;whiteSpace=wrap;html=1;" vertex="1" parent="1">
          <mxGeometry x="150" y="990" width="160" height="86" as="geometry" />
        </mxCell>
        <mxCell id="JPbPp24o7M2_uj4HTOKJ-32" value="+ turboCar: TurboBehaviour" style="text;strokeColor=none;fillColor=none;align=left;verticalAlign=top;spacingLeft=4;spacingRight=4;overflow=hidden;rotatable=0;points=[[0,0.5],[1,0.5]];portConstraint=eastwest;whiteSpace=wrap;html=1;" vertex="1" parent="JPbPp24o7M2_uj4HTOKJ-31">
          <mxGeometry y="26" width="160" height="26" as="geometry" />
        </mxCell>
        <mxCell id="JPbPp24o7M2_uj4HTOKJ-33" value="" style="line;strokeWidth=1;fillColor=none;align=left;verticalAlign=middle;spacingTop=-1;spacingLeft=3;spacingRight=3;rotatable=0;labelPosition=right;points=[];portConstraint=eastwest;strokeColor=inherit;" vertex="1" parent="JPbPp24o7M2_uj4HTOKJ-31">
          <mxGeometry y="52" width="160" height="8" as="geometry" />
        </mxCell>
        <mxCell id="JPbPp24o7M2_uj4HTOKJ-34" value="+ speedFactor: double" style="text;strokeColor=none;fillColor=none;align=left;verticalAlign=top;spacingLeft=4;spacingRight=4;overflow=hidden;rotatable=0;points=[[0,0.5],[1,0.5]];portConstraint=eastwest;whiteSpace=wrap;html=1;" vertex="1" parent="JPbPp24o7M2_uj4HTOKJ-31">
          <mxGeometry y="60" width="160" height="26" as="geometry" />
        </mxCell>
        <mxCell id="JPbPp24o7M2_uj4HTOKJ-35" value="Extends" style="endArrow=block;endSize=16;endFill=0;html=1;rounded=0;entryX=0.451;entryY=1.005;entryDx=0;entryDy=0;entryPerimeter=0;exitX=0.5;exitY=0;exitDx=0;exitDy=0;" edge="1" parent="1" source="JPbPp24o7M2_uj4HTOKJ-31" target="Iw1DIzwXRPO4TeAjE_ug-4">
          <mxGeometry width="160" relative="1" as="geometry">
            <mxPoint x="190" y="1110" as="sourcePoint" />
            <mxPoint x="350" y="1110" as="targetPoint" />
          </mxGeometry>
        </mxCell>
        <mxCell id="JPbPp24o7M2_uj4HTOKJ-36" value="TurboBehaviour" style="swimlane;fontStyle=1;align=center;verticalAlign=top;childLayout=stackLayout;horizontal=1;startSize=26;horizontalStack=0;resizeParent=1;resizeParentMax=0;resizeLast=0;collapsible=1;marginBottom=0;whiteSpace=wrap;html=1;" vertex="1" parent="1">
          <mxGeometry x="-20" y="1200" width="160" height="160" as="geometry" />
        </mxCell>
        <mxCell id="JPbPp24o7M2_uj4HTOKJ-37" value="+turboOn: Boolean&lt;br&gt;+turboVal: double" style="text;strokeColor=none;fillColor=none;align=left;verticalAlign=top;spacingLeft=4;spacingRight=4;overflow=hidden;rotatable=0;points=[[0,0.5],[1,0.5]];portConstraint=eastwest;whiteSpace=wrap;html=1;" vertex="1" parent="JPbPp24o7M2_uj4HTOKJ-36">
          <mxGeometry y="26" width="160" height="44" as="geometry" />
        </mxCell>
        <mxCell id="JPbPp24o7M2_uj4HTOKJ-38" value="" style="line;strokeWidth=1;fillColor=none;align=left;verticalAlign=middle;spacingTop=-1;spacingLeft=3;spacingRight=3;rotatable=0;labelPosition=right;points=[];portConstraint=eastwest;strokeColor=inherit;" vertex="1" parent="JPbPp24o7M2_uj4HTOKJ-36">
          <mxGeometry y="70" width="160" height="8" as="geometry" />
        </mxCell>
        <mxCell id="JPbPp24o7M2_uj4HTOKJ-39" value="+ TurboBehaviour()&lt;br&gt;+ setTurboOn(): void&lt;br&gt;+ setTurboOff(): void&lt;br&gt;+ getTurbo(): double" style="text;strokeColor=none;fillColor=none;align=left;verticalAlign=top;spacingLeft=4;spacingRight=4;overflow=hidden;rotatable=0;points=[[0,0.5],[1,0.5]];portConstraint=eastwest;whiteSpace=wrap;html=1;" vertex="1" parent="JPbPp24o7M2_uj4HTOKJ-36">
          <mxGeometry y="78" width="160" height="82" as="geometry" />
        </mxCell>
        <mxCell id="JPbPp24o7M2_uj4HTOKJ-40" value="" style="endArrow=open;endFill=1;endSize=12;html=1;rounded=0;entryX=0.574;entryY=0.007;entryDx=0;entryDy=0;entryPerimeter=0;exitX=0;exitY=0.5;exitDx=0;exitDy=0;" edge="1" parent="1" source="JPbPp24o7M2_uj4HTOKJ-32" target="JPbPp24o7M2_uj4HTOKJ-36">
          <mxGeometry width="160" relative="1" as="geometry">
            <mxPoint x="180" y="1120" as="sourcePoint" />
            <mxPoint x="340" y="1120" as="targetPoint" />
            <Array as="points">
              <mxPoint x="130" y="1130" />
            </Array>
          </mxGeometry>
        </mxCell>
        <mxCell id="JPbPp24o7M2_uj4HTOKJ-41" value="Loadable&amp;lt;T&amp;gt;" style="swimlane;fontStyle=1;align=center;verticalAlign=top;childLayout=stackLayout;horizontal=1;startSize=26;horizontalStack=0;resizeParent=1;resizeParentMax=0;resizeLast=0;collapsible=1;marginBottom=0;whiteSpace=wrap;html=1;" vertex="1" parent="1">
          <mxGeometry x="520" y="1105" width="190" height="280" as="geometry" />
        </mxCell>
        <mxCell id="JPbPp24o7M2_uj4HTOKJ-42" value="- maxLoad: int&lt;br&gt;- loadedCars: ArrayList&lt;br&gt;- &lt;u&gt;loadingRadius&lt;/u&gt;: int&lt;br&gt;- x: double&lt;br&gt;- y: double" style="text;strokeColor=none;fillColor=none;align=left;verticalAlign=top;spacingLeft=4;spacingRight=4;overflow=hidden;rotatable=0;points=[[0,0.5],[1,0.5]];portConstraint=eastwest;whiteSpace=wrap;html=1;" vertex="1" parent="JPbPp24o7M2_uj4HTOKJ-41">
          <mxGeometry y="26" width="190" height="84" as="geometry" />
        </mxCell>
        <mxCell id="JPbPp24o7M2_uj4HTOKJ-43" value="" style="line;strokeWidth=1;fillColor=none;align=left;verticalAlign=middle;spacingTop=-1;spacingLeft=3;spacingRight=3;rotatable=0;labelPosition=right;points=[];portConstraint=eastwest;strokeColor=inherit;" vertex="1" parent="JPbPp24o7M2_uj4HTOKJ-41">
          <mxGeometry y="110" width="190" height="8" as="geometry" />
        </mxCell>
        <mxCell id="JPbPp24o7M2_uj4HTOKJ-44" value="+ Loadable(int, double, double)&lt;br&gt;+ move(): void&lt;br&gt;+ getX(): double&lt;br&gt;+ getY(): double&lt;br&gt;+ load(T): void&lt;br&gt;+ unload(): T&lt;br&gt;+ getLoadedCars(): List&lt;br&gt;+ nrOfLoadedCars(): int&lt;br&gt;+ distanceBetween(T): double&lt;br&gt;+ canLoad(T): boolean" style="text;strokeColor=none;fillColor=none;align=left;verticalAlign=top;spacingLeft=4;spacingRight=4;overflow=hidden;rotatable=0;points=[[0,0.5],[1,0.5]];portConstraint=eastwest;whiteSpace=wrap;html=1;" vertex="1" parent="JPbPp24o7M2_uj4HTOKJ-41">
          <mxGeometry y="118" width="190" height="162" as="geometry" />
        </mxCell>
        <mxCell id="JPbPp24o7M2_uj4HTOKJ-50" value="«interface»&lt;br style=&quot;border-color: var(--border-color);&quot;&gt;Attachment" style="swimlane;fontStyle=0;childLayout=stackLayout;horizontal=1;startSize=26;fillColor=none;horizontalStack=0;resizeParent=1;resizeParentMax=0;resizeLast=0;collapsible=1;marginBottom=0;whiteSpace=wrap;html=1;" vertex="1" parent="1">
          <mxGeometry x="550" y="1570" width="160" height="110" as="geometry" />
        </mxCell>
        <mxCell id="JPbPp24o7M2_uj4HTOKJ-52" value="attachmentInUse: Boolean&lt;br&gt;raiseAttachment(): void&lt;br&gt;lowerAttachment(): void&lt;br&gt;state(): int" style="text;strokeColor=none;fillColor=none;align=left;verticalAlign=top;spacingLeft=4;spacingRight=4;overflow=hidden;rotatable=0;points=[[0,0.5],[1,0.5]];portConstraint=eastwest;whiteSpace=wrap;html=1;" vertex="1" parent="JPbPp24o7M2_uj4HTOKJ-50">
          <mxGeometry y="26" width="160" height="84" as="geometry" />
        </mxCell>
        <mxCell id="JPbPp24o7M2_uj4HTOKJ-54" value="Platform" style="swimlane;fontStyle=1;align=center;verticalAlign=top;childLayout=stackLayout;horizontal=1;startSize=26;horizontalStack=0;resizeParent=1;resizeParentMax=0;resizeLast=0;collapsible=1;marginBottom=0;whiteSpace=wrap;html=1;" vertex="1" parent="1">
          <mxGeometry x="760" y="1380" width="170" height="160" as="geometry" />
        </mxCell>
        <mxCell id="JPbPp24o7M2_uj4HTOKJ-55" value="-platformAngle: int" style="text;strokeColor=none;fillColor=none;align=left;verticalAlign=top;spacingLeft=4;spacingRight=4;overflow=hidden;rotatable=0;points=[[0,0.5],[1,0.5]];portConstraint=eastwest;whiteSpace=wrap;html=1;" vertex="1" parent="JPbPp24o7M2_uj4HTOKJ-54">
          <mxGeometry y="26" width="170" height="26" as="geometry" />
        </mxCell>
        <mxCell id="JPbPp24o7M2_uj4HTOKJ-56" value="" style="line;strokeWidth=1;fillColor=none;align=left;verticalAlign=middle;spacingTop=-1;spacingLeft=3;spacingRight=3;rotatable=0;labelPosition=right;points=[];portConstraint=eastwest;strokeColor=inherit;" vertex="1" parent="JPbPp24o7M2_uj4HTOKJ-54">
          <mxGeometry y="52" width="170" height="8" as="geometry" />
        </mxCell>
        <mxCell id="JPbPp24o7M2_uj4HTOKJ-57" value="+Platform()&lt;br&gt;+ getState(): int&lt;br&gt;+ raiseAttachment(): void&lt;br&gt;+ lowerAttachment: void&lt;br&gt;+ attachmentInUse(): Boolean" style="text;strokeColor=none;fillColor=none;align=left;verticalAlign=top;spacingLeft=4;spacingRight=4;overflow=hidden;rotatable=0;points=[[0,0.5],[1,0.5]];portConstraint=eastwest;whiteSpace=wrap;html=1;" vertex="1" parent="JPbPp24o7M2_uj4HTOKJ-54">
          <mxGeometry y="60" width="170" height="100" as="geometry" />
        </mxCell>
        <mxCell id="JPbPp24o7M2_uj4HTOKJ-58" value="Flatbed" style="swimlane;fontStyle=1;align=center;verticalAlign=top;childLayout=stackLayout;horizontal=1;startSize=26;horizontalStack=0;resizeParent=1;resizeParentMax=0;resizeLast=0;collapsible=1;marginBottom=0;whiteSpace=wrap;html=1;" vertex="1" parent="1">
          <mxGeometry x="300" y="1385" width="170" height="170" as="geometry" />
        </mxCell>
        <mxCell id="JPbPp24o7M2_uj4HTOKJ-59" value="- state: int" style="text;strokeColor=none;fillColor=none;align=left;verticalAlign=top;spacingLeft=4;spacingRight=4;overflow=hidden;rotatable=0;points=[[0,0.5],[1,0.5]];portConstraint=eastwest;whiteSpace=wrap;html=1;" vertex="1" parent="JPbPp24o7M2_uj4HTOKJ-58">
          <mxGeometry y="26" width="170" height="26" as="geometry" />
        </mxCell>
        <mxCell id="JPbPp24o7M2_uj4HTOKJ-60" value="" style="line;strokeWidth=1;fillColor=none;align=left;verticalAlign=middle;spacingTop=-1;spacingLeft=3;spacingRight=3;rotatable=0;labelPosition=right;points=[];portConstraint=eastwest;strokeColor=inherit;" vertex="1" parent="JPbPp24o7M2_uj4HTOKJ-58">
          <mxGeometry y="52" width="170" height="8" as="geometry" />
        </mxCell>
        <mxCell id="JPbPp24o7M2_uj4HTOKJ-61" value="+ Flatbed()&lt;br&gt;+ attachmentInUse(): Boolean&lt;br&gt;+ raiseAttachment(): void&lt;br&gt;+ lowerAttachment(): void&lt;br&gt;+ getState(): int" style="text;strokeColor=none;fillColor=none;align=left;verticalAlign=top;spacingLeft=4;spacingRight=4;overflow=hidden;rotatable=0;points=[[0,0.5],[1,0.5]];portConstraint=eastwest;whiteSpace=wrap;html=1;" vertex="1" parent="JPbPp24o7M2_uj4HTOKJ-58">
          <mxGeometry y="60" width="170" height="110" as="geometry" />
        </mxCell>
        <mxCell id="JPbPp24o7M2_uj4HTOKJ-62" value="" style="endArrow=block;dashed=1;endFill=0;endSize=12;html=1;rounded=0;exitX=0.463;exitY=1.023;exitDx=0;exitDy=0;entryX=0.086;entryY=-0.011;entryDx=0;entryDy=0;entryPerimeter=0;exitPerimeter=0;" edge="1" parent="1" source="JPbPp24o7M2_uj4HTOKJ-61" target="JPbPp24o7M2_uj4HTOKJ-50">
          <mxGeometry width="160" relative="1" as="geometry">
            <mxPoint x="850" y="512" as="sourcePoint" />
            <mxPoint x="1066" y="430" as="targetPoint" />
          </mxGeometry>
        </mxCell>
        <mxCell id="JPbPp24o7M2_uj4HTOKJ-63" value="" style="endArrow=block;dashed=1;endFill=0;endSize=12;html=1;rounded=0;exitX=0.515;exitY=0.988;exitDx=0;exitDy=0;exitPerimeter=0;entryX=0.82;entryY=-0.034;entryDx=0;entryDy=0;entryPerimeter=0;" edge="1" parent="1" source="JPbPp24o7M2_uj4HTOKJ-57" target="JPbPp24o7M2_uj4HTOKJ-50">
          <mxGeometry width="160" relative="1" as="geometry">
            <mxPoint x="700" y="772" as="sourcePoint" />
            <mxPoint x="710" y="1350" as="targetPoint" />
          </mxGeometry>
        </mxCell>
        <mxCell id="JPbPp24o7M2_uj4HTOKJ-65" value="" style="endArrow=open;endFill=1;endSize=12;html=1;rounded=0;exitX=1;exitY=0.5;exitDx=0;exitDy=0;entryX=0;entryY=0.5;entryDx=0;entryDy=0;" edge="1" parent="1" source="JPbPp24o7M2_uj4HTOKJ-17" target="JPbPp24o7M2_uj4HTOKJ-42">
          <mxGeometry width="160" relative="1" as="geometry">
            <mxPoint x="410" y="1100" as="sourcePoint" />
            <mxPoint x="570" y="1100" as="targetPoint" />
          </mxGeometry>
        </mxCell>
        <mxCell id="JPbPp24o7M2_uj4HTOKJ-66" value="" style="endArrow=open;endFill=1;endSize=12;html=1;rounded=0;entryX=0.5;entryY=0;entryDx=0;entryDy=0;exitX=0;exitY=0.5;exitDx=0;exitDy=0;" edge="1" parent="1" source="JPbPp24o7M2_uj4HTOKJ-17" target="JPbPp24o7M2_uj4HTOKJ-58">
          <mxGeometry width="160" relative="1" as="geometry">
            <mxPoint x="202" y="1181" as="sourcePoint" />
            <mxPoint x="410" y="1310" as="targetPoint" />
            <Array as="points">
              <mxPoint x="160" y="1330" />
            </Array>
          </mxGeometry>
        </mxCell>
        <mxCell id="JPbPp24o7M2_uj4HTOKJ-67" value="" style="endArrow=open;endFill=1;endSize=12;html=1;rounded=0;entryX=0.5;entryY=0;entryDx=0;entryDy=0;exitX=1.016;exitY=0.233;exitDx=0;exitDy=0;exitPerimeter=0;" edge="1" parent="1" target="JPbPp24o7M2_uj4HTOKJ-54">
          <mxGeometry width="160" relative="1" as="geometry">
            <mxPoint x="912.56" y="1176.2520000000004" as="sourcePoint" />
            <mxPoint x="1060" y="1330" as="targetPoint" />
            <Array as="points">
              <mxPoint x="970" y="1300" />
            </Array>
          </mxGeometry>
        </mxCell>
        <mxCell id="JPbPp24o7M2_uj4HTOKJ-70" value="CarController" style="swimlane;fontStyle=1;align=center;verticalAlign=top;childLayout=stackLayout;horizontal=1;startSize=26;horizontalStack=0;resizeParent=1;resizeParentMax=0;resizeLast=0;collapsible=1;marginBottom=0;whiteSpace=wrap;html=1;" vertex="1" parent="1">
          <mxGeometry x="-460" y="790" width="190" height="260" as="geometry" />
        </mxCell>
        <mxCell id="JPbPp24o7M2_uj4HTOKJ-71" value="- delay: int&lt;br&gt;- timer: Timer&lt;br&gt;~ frame: CarView&lt;br&gt;~ cars: ArrayList&amp;lt;Car&amp;gt;" style="text;strokeColor=none;fillColor=none;align=left;verticalAlign=top;spacingLeft=4;spacingRight=4;overflow=hidden;rotatable=0;points=[[0,0.5],[1,0.5]];portConstraint=eastwest;whiteSpace=wrap;html=1;" vertex="1" parent="JPbPp24o7M2_uj4HTOKJ-70">
          <mxGeometry y="26" width="190" height="74" as="geometry" />
        </mxCell>
        <mxCell id="JPbPp24o7M2_uj4HTOKJ-72" value="" style="line;strokeWidth=1;fillColor=none;align=left;verticalAlign=middle;spacingTop=-1;spacingLeft=3;spacingRight=3;rotatable=0;labelPosition=right;points=[];portConstraint=eastwest;strokeColor=inherit;" vertex="1" parent="JPbPp24o7M2_uj4HTOKJ-70">
          <mxGeometry y="100" width="190" height="8" as="geometry" />
        </mxCell>
        <mxCell id="JPbPp24o7M2_uj4HTOKJ-73" value="+ &lt;u&gt;main&lt;/u&gt;(string[] args): void&lt;br&gt;# gas(int): void&lt;br&gt;# brake(int): void&lt;br&gt;# turboOn(): void&lt;br&gt;# turboOff(): void&lt;br&gt;# raiseScaniaPlatform(): void&lt;br&gt;# lowerScaniaPlatform(): void&lt;br&gt;# stopAllCars(): void&lt;br&gt;# startAllCars(): void&lt;br&gt;# VolvoCarShopCollosion(): void" style="text;strokeColor=none;fillColor=none;align=left;verticalAlign=top;spacingLeft=4;spacingRight=4;overflow=hidden;rotatable=0;points=[[0,0.5],[1,0.5]];portConstraint=eastwest;whiteSpace=wrap;html=1;" vertex="1" parent="JPbPp24o7M2_uj4HTOKJ-70">
          <mxGeometry y="108" width="190" height="152" as="geometry" />
        </mxCell>
        <mxCell id="JPbPp24o7M2_uj4HTOKJ-74" value="CarView" style="swimlane;fontStyle=1;align=center;verticalAlign=top;childLayout=stackLayout;horizontal=1;startSize=26;horizontalStack=0;resizeParent=1;resizeParentMax=0;resizeLast=0;collapsible=1;marginBottom=0;whiteSpace=wrap;html=1;" vertex="1" parent="1">
          <mxGeometry x="-960" y="584" width="190" height="360" as="geometry" />
        </mxCell>
        <mxCell id="JPbPp24o7M2_uj4HTOKJ-75" value="- &lt;u&gt;X&lt;/u&gt;: int&lt;br&gt;- &lt;u&gt;Y&lt;/u&gt;: int&lt;br&gt;~ carC: CarController&lt;br&gt;~ drawPanel: DrawPanel&lt;br&gt;~ controlPanel: JPanel&lt;br&gt;~ gasPanel: JPanel&lt;br&gt;~ gasSpinner: JSpinner&lt;br&gt;~ gasAmount: int&lt;br&gt;~ brakeAmount: int&lt;br&gt;~ gasLabel: JLabel&lt;br&gt;~ gasButton:&amp;nbsp;JButton&lt;br&gt;~ brakeButton:&amp;nbsp;JButton&lt;br&gt;~ turboOnButton:&amp;nbsp;JButton&lt;br&gt;~ turboOffButton:&amp;nbsp;JButton&lt;br&gt;~ liftBedButton:&amp;nbsp;JButton&lt;br&gt;~ lowerBedButton:&amp;nbsp;JButton&lt;br&gt;~ startButton:&amp;nbsp;JButton&lt;br&gt;~ stopButton:&amp;nbsp;JButton" style="text;strokeColor=none;fillColor=none;align=left;verticalAlign=top;spacingLeft=4;spacingRight=4;overflow=hidden;rotatable=0;points=[[0,0.5],[1,0.5]];portConstraint=eastwest;whiteSpace=wrap;html=1;" vertex="1" parent="JPbPp24o7M2_uj4HTOKJ-74">
          <mxGeometry y="26" width="190" height="274" as="geometry" />
        </mxCell>
        <mxCell id="JPbPp24o7M2_uj4HTOKJ-76" value="" style="line;strokeWidth=1;fillColor=none;align=left;verticalAlign=middle;spacingTop=-1;spacingLeft=3;spacingRight=3;rotatable=0;labelPosition=right;points=[];portConstraint=eastwest;strokeColor=inherit;" vertex="1" parent="JPbPp24o7M2_uj4HTOKJ-74">
          <mxGeometry y="300" width="190" height="8" as="geometry" />
        </mxCell>
        <mxCell id="JPbPp24o7M2_uj4HTOKJ-77" value="+ CarView(String, CarController)&lt;br&gt;- initComponents(String): void&lt;br&gt;" style="text;strokeColor=none;fillColor=none;align=left;verticalAlign=top;spacingLeft=4;spacingRight=4;overflow=hidden;rotatable=0;points=[[0,0.5],[1,0.5]];portConstraint=eastwest;whiteSpace=wrap;html=1;" vertex="1" parent="JPbPp24o7M2_uj4HTOKJ-74">
          <mxGeometry y="308" width="190" height="52" as="geometry" />
        </mxCell>
        <mxCell id="JPbPp24o7M2_uj4HTOKJ-78" value="DrawPanel" style="swimlane;fontStyle=1;align=center;verticalAlign=top;childLayout=stackLayout;horizontal=1;startSize=26;horizontalStack=0;resizeParent=1;resizeParentMax=0;resizeLast=0;collapsible=1;marginBottom=0;whiteSpace=wrap;html=1;" vertex="1" parent="1">
          <mxGeometry x="-833" y="1120" width="280" height="170" as="geometry" />
        </mxCell>
        <mxCell id="JPbPp24o7M2_uj4HTOKJ-79" value="~ carAndImage: HashMap&amp;lt;Car, BufferedImage&amp;gt;&lt;br&gt;~ cars: ArrayList&amp;lt;Car&amp;gt;&lt;br&gt;~ VolvoWorkshop: CarShop&amp;lt;Volvo240&amp;gt;&lt;br&gt;~ VolvoImage: BufferedImage" style="text;strokeColor=none;fillColor=none;align=left;verticalAlign=top;spacingLeft=4;spacingRight=4;overflow=hidden;rotatable=0;points=[[0,0.5],[1,0.5]];portConstraint=eastwest;whiteSpace=wrap;html=1;" vertex="1" parent="JPbPp24o7M2_uj4HTOKJ-78">
          <mxGeometry y="26" width="280" height="84" as="geometry" />
        </mxCell>
        <mxCell id="JPbPp24o7M2_uj4HTOKJ-80" value="" style="line;strokeWidth=1;fillColor=none;align=left;verticalAlign=middle;spacingTop=-1;spacingLeft=3;spacingRight=3;rotatable=0;labelPosition=right;points=[];portConstraint=eastwest;strokeColor=inherit;" vertex="1" parent="JPbPp24o7M2_uj4HTOKJ-78">
          <mxGeometry y="110" width="280" height="8" as="geometry" />
        </mxCell>
        <mxCell id="JPbPp24o7M2_uj4HTOKJ-81" value="+ DrawPanel(int, int, ArrayList&amp;lt;Car&amp;gt;)&lt;br&gt;# PaintComponents(Graphics): void" style="text;strokeColor=none;fillColor=none;align=left;verticalAlign=top;spacingLeft=4;spacingRight=4;overflow=hidden;rotatable=0;points=[[0,0.5],[1,0.5]];portConstraint=eastwest;whiteSpace=wrap;html=1;" vertex="1" parent="JPbPp24o7M2_uj4HTOKJ-78">
          <mxGeometry y="118" width="280" height="52" as="geometry" />
        </mxCell>
        <mxCell id="JPbPp24o7M2_uj4HTOKJ-82" value="TimerListener" style="swimlane;fontStyle=1;align=center;verticalAlign=top;childLayout=stackLayout;horizontal=1;startSize=26;horizontalStack=0;resizeParent=1;resizeParentMax=0;resizeLast=0;collapsible=1;marginBottom=0;whiteSpace=wrap;html=1;" vertex="1" parent="1">
          <mxGeometry x="-470" y="1154" width="210" height="70" as="geometry" />
        </mxCell>
        <mxCell id="JPbPp24o7M2_uj4HTOKJ-84" value="" style="line;strokeWidth=1;fillColor=none;align=left;verticalAlign=middle;spacingTop=-1;spacingLeft=3;spacingRight=3;rotatable=0;labelPosition=right;points=[];portConstraint=eastwest;strokeColor=inherit;" vertex="1" parent="JPbPp24o7M2_uj4HTOKJ-82">
          <mxGeometry y="26" width="210" height="8" as="geometry" />
        </mxCell>
        <mxCell id="JPbPp24o7M2_uj4HTOKJ-85" value="+ actionPerformed(ActionEvent): void&lt;br&gt;" style="text;strokeColor=none;fillColor=none;align=left;verticalAlign=top;spacingLeft=4;spacingRight=4;overflow=hidden;rotatable=0;points=[[0,0.5],[1,0.5]];portConstraint=eastwest;whiteSpace=wrap;html=1;" vertex="1" parent="JPbPp24o7M2_uj4HTOKJ-82">
          <mxGeometry y="34" width="210" height="36" as="geometry" />
        </mxCell>
        <mxCell id="JPbPp24o7M2_uj4HTOKJ-86" value="«interface»&lt;br style=&quot;border-color: var(--border-color);&quot;&gt;Loading&amp;lt;T&amp;gt;" style="swimlane;fontStyle=0;childLayout=stackLayout;horizontal=1;startSize=26;fillColor=none;horizontalStack=0;resizeParent=1;resizeParentMax=0;resizeLast=0;collapsible=1;marginBottom=0;whiteSpace=wrap;html=1;" vertex="1" parent="1">
          <mxGeometry x="540" y="1442" width="140" height="70" as="geometry" />
        </mxCell>
        <mxCell id="JPbPp24o7M2_uj4HTOKJ-91" value="" style="endArrow=block;dashed=1;endFill=0;endSize=12;html=1;rounded=0;exitX=0.486;exitY=1.023;exitDx=0;exitDy=0;exitPerimeter=0;entryX=0.5;entryY=0;entryDx=0;entryDy=0;" edge="1" parent="1" source="JPbPp24o7M2_uj4HTOKJ-44" target="JPbPp24o7M2_uj4HTOKJ-86">
          <mxGeometry width="160" relative="1" as="geometry">
            <mxPoint x="717" y="1500" as="sourcePoint" />
            <mxPoint x="550" y="1527" as="targetPoint" />
          </mxGeometry>
        </mxCell>
        <mxCell id="JPbPp24o7M2_uj4HTOKJ-87" value="load(T): void&lt;br&gt;unload(): T" style="text;strokeColor=none;fillColor=none;align=left;verticalAlign=top;spacingLeft=4;spacingRight=4;overflow=hidden;rotatable=0;points=[[0,0.5],[1,0.5]];portConstraint=eastwest;whiteSpace=wrap;html=1;" vertex="1" parent="1">
          <mxGeometry x="540" y="1468" width="140" height="44" as="geometry" />
        </mxCell>
        <mxCell id="6xLC5VvGVvwtOd83B3L0-1" value="" style="endArrow=open;endFill=1;endSize=12;html=1;rounded=0;exitX=1.001;exitY=0.121;exitDx=0;exitDy=0;exitPerimeter=0;entryX=0;entryY=0;entryDx=0;entryDy=0;" edge="1" parent="1" source="JPbPp24o7M2_uj4HTOKJ-75" target="JPbPp24o7M2_uj4HTOKJ-70">
          <mxGeometry width="160" relative="1" as="geometry">
            <mxPoint x="-534" y="650" as="sourcePoint" />
            <mxPoint x="-400" y="810" as="targetPoint" />
            <Array as="points">
              <mxPoint x="-650" y="700" />
            </Array>
          </mxGeometry>
        </mxCell>
        <mxCell id="6xLC5VvGVvwtOd83B3L0-2" value="" style="endArrow=open;endFill=1;endSize=12;html=1;rounded=0;exitX=-0.005;exitY=0.201;exitDx=0;exitDy=0;exitPerimeter=0;entryX=0.5;entryY=0;entryDx=0;entryDy=0;" edge="1" parent="1" target="JPbPp24o7M2_uj4HTOKJ-78">
          <mxGeometry width="160" relative="1" as="geometry">
            <mxPoint x="-769.9999999999998" y="666.0740000000001" as="sourcePoint" />
            <mxPoint x="-551.05" y="1105" as="targetPoint" />
            <Array as="points">
              <mxPoint x="-693" y="820" />
            </Array>
          </mxGeometry>
        </mxCell>
        <mxCell id="JPbPp24o7M2_uj4HTOKJ-92" value="" style="endArrow=block;dashed=1;endFill=0;endSize=12;html=1;rounded=0;entryX=1;entryY=0.5;entryDx=0;entryDy=0;exitX=1.039;exitY=0.673;exitDx=0;exitDy=0;exitPerimeter=0;" edge="1" parent="1" source="JPbPp24o7M2_uj4HTOKJ-52" target="JPbPp24o7M2_uj4HTOKJ-7">
          <mxGeometry width="160" relative="1" as="geometry">
            <mxPoint x="1080" y="1730" as="sourcePoint" />
            <mxPoint x="700" y="1010" as="targetPoint" />
            <Array as="points">
              <mxPoint x="1020" y="1653" />
              <mxPoint x="980" y="1100" />
            </Array>
          </mxGeometry>
        </mxCell>
        <mxCell id="6xLC5VvGVvwtOd83B3L0-3" value="CarShop&amp;lt;T&amp;gt;" style="swimlane;fontStyle=1;align=center;verticalAlign=top;childLayout=stackLayout;horizontal=1;startSize=26;horizontalStack=0;resizeParent=1;resizeParentMax=0;resizeLast=0;collapsible=1;marginBottom=0;whiteSpace=wrap;html=1;" vertex="1" parent="1">
          <mxGeometry x="1090" y="1230" width="170" height="140" as="geometry" />
        </mxCell>
        <mxCell id="6xLC5VvGVvwtOd83B3L0-4" value="# loadable: Loadable&amp;lt;T&amp;gt;" style="text;strokeColor=none;fillColor=none;align=left;verticalAlign=top;spacingLeft=4;spacingRight=4;overflow=hidden;rotatable=0;points=[[0,0.5],[1,0.5]];portConstraint=eastwest;whiteSpace=wrap;html=1;" vertex="1" parent="6xLC5VvGVvwtOd83B3L0-3">
          <mxGeometry y="26" width="170" height="26" as="geometry" />
        </mxCell>
        <mxCell id="6xLC5VvGVvwtOd83B3L0-5" value="" style="line;strokeWidth=1;fillColor=none;align=left;verticalAlign=middle;spacingTop=-1;spacingLeft=3;spacingRight=3;rotatable=0;labelPosition=right;points=[];portConstraint=eastwest;strokeColor=inherit;" vertex="1" parent="6xLC5VvGVvwtOd83B3L0-3">
          <mxGeometry y="52" width="170" height="8" as="geometry" />
        </mxCell>
        <mxCell id="6xLC5VvGVvwtOd83B3L0-6" value="+ load(T): void&lt;br&gt;+ unload(): T&lt;br&gt;+ nrOfLoadedCars(): int&lt;br&gt;+ getX(): double&lt;br&gt;+ getY(): double" style="text;strokeColor=none;fillColor=none;align=left;verticalAlign=top;spacingLeft=4;spacingRight=4;overflow=hidden;rotatable=0;points=[[0,0.5],[1,0.5]];portConstraint=eastwest;whiteSpace=wrap;html=1;" vertex="1" parent="6xLC5VvGVvwtOd83B3L0-3">
          <mxGeometry y="60" width="170" height="80" as="geometry" />
        </mxCell>
        <mxCell id="6xLC5VvGVvwtOd83B3L0-7" value="" style="endArrow=open;endFill=1;endSize=12;html=1;rounded=0;entryX=0.5;entryY=0;entryDx=0;entryDy=0;exitX=0;exitY=0.5;exitDx=0;exitDy=0;" edge="1" parent="1" source="6xLC5VvGVvwtOd83B3L0-4">
          <mxGeometry width="160" relative="1" as="geometry">
            <mxPoint x="777.56" y="965.0020000000004" as="sourcePoint" />
            <mxPoint x="710" y="1168.75" as="targetPoint" />
            <Array as="points">
              <mxPoint x="760" y="1290" />
            </Array>
          </mxGeometry>
        </mxCell>
        <mxCell id="6xLC5VvGVvwtOd83B3L0-8" value="" style="endArrow=open;endFill=1;endSize=12;html=1;rounded=0;exitX=0.474;exitY=0.992;exitDx=0;exitDy=0;exitPerimeter=0;entryX=0.456;entryY=0.024;entryDx=0;entryDy=0;entryPerimeter=0;" edge="1" parent="1" source="JPbPp24o7M2_uj4HTOKJ-73" target="JPbPp24o7M2_uj4HTOKJ-82">
          <mxGeometry width="160" relative="1" as="geometry">
            <mxPoint x="-391" y="1100" as="sourcePoint" />
            <mxPoint x="-500" y="1429" as="targetPoint" />
            <Array as="points" />
          </mxGeometry>
        </mxCell>
        <mxCell id="6xLC5VvGVvwtOd83B3L0-10" value="Use" style="endArrow=open;endSize=12;dashed=1;html=1;rounded=0;entryX=0;entryY=0;entryDx=0;entryDy=0;exitX=1.001;exitY=1.023;exitDx=0;exitDy=0;exitPerimeter=0;" edge="1" parent="1" source="JPbPp24o7M2_uj4HTOKJ-71" target="JPbPp24o7M2_uj4HTOKJ-21">
          <mxGeometry width="160" relative="1" as="geometry">
            <mxPoint x="-270" y="870" as="sourcePoint" />
            <mxPoint x="-110" y="870" as="targetPoint" />
          </mxGeometry>
        </mxCell>
        <mxCell id="6xLC5VvGVvwtOd83B3L0-11" value="Use" style="endArrow=open;endSize=12;dashed=1;html=1;rounded=0;entryX=0.171;entryY=-0.03;entryDx=0;entryDy=0;entryPerimeter=0;" edge="1" parent="1" source="JPbPp24o7M2_uj4HTOKJ-71" target="JPbPp24o7M2_uj4HTOKJ-31">
          <mxGeometry width="160" relative="1" as="geometry">
            <mxPoint x="-270" y="850" as="sourcePoint" />
            <mxPoint x="-40" y="970" as="targetPoint" />
          </mxGeometry>
        </mxCell>
        <mxCell id="6xLC5VvGVvwtOd83B3L0-12" value="Use" style="endArrow=open;endSize=12;dashed=1;html=1;rounded=0;entryX=0.5;entryY=0;entryDx=0;entryDy=0;" edge="1" parent="1" target="JPbPp24o7M2_uj4HTOKJ-11">
          <mxGeometry width="160" relative="1" as="geometry">
            <mxPoint x="-270" y="850" as="sourcePoint" />
            <mxPoint x="900" y="860" as="targetPoint" />
            <Array as="points">
              <mxPoint x="790" y="860" />
            </Array>
          </mxGeometry>
        </mxCell>
        <mxCell id="6xLC5VvGVvwtOd83B3L0-14" value="Use" style="endArrow=open;endSize=12;dashed=1;html=1;rounded=0;entryX=0.408;entryY=1.067;entryDx=0;entryDy=0;entryPerimeter=0;" edge="1" parent="1" target="6xLC5VvGVvwtOd83B3L0-6">
          <mxGeometry width="160" relative="1" as="geometry">
            <mxPoint x="-650" y="1290" as="sourcePoint" />
            <mxPoint x="1210" y="1760" as="targetPoint" />
            <Array as="points">
              <mxPoint x="-650" y="1760" />
              <mxPoint x="1160" y="1770" />
            </Array>
          </mxGeometry>
        </mxCell>
        <mxCell id="6xLC5VvGVvwtOd83B3L0-15" value="" style="endArrow=open;endFill=1;endSize=12;html=1;rounded=0;exitX=0;exitY=0.5;exitDx=0;exitDy=0;entryX=1;entryY=0.5;entryDx=0;entryDy=0;" edge="1" parent="1" source="JPbPp24o7M2_uj4HTOKJ-71" target="JPbPp24o7M2_uj4HTOKJ-75">
          <mxGeometry width="160" relative="1" as="geometry">
            <mxPoint x="-710" y="797" as="sourcePoint" />
            <mxPoint x="-400" y="944" as="targetPoint" />
            <Array as="points">
              <mxPoint x="-590" y="854" />
            </Array>
          </mxGeometry>
        </mxCell>
        <mxCell id="6xLC5VvGVvwtOd83B3L0-18" value="Use" style="endArrow=open;endSize=12;dashed=1;html=1;rounded=0;entryX=1;entryY=0.5;entryDx=0;entryDy=0;" edge="1" parent="1" source="6xLC5VvGVvwtOd83B3L0-3" target="Iw1DIzwXRPO4TeAjE_ug-2">
          <mxGeometry width="160" relative="1" as="geometry">
            <mxPoint x="940" y="650" as="sourcePoint" />
            <mxPoint x="1040" y="530" as="targetPoint" />
            <Array as="points">
              <mxPoint x="1120" y="660" />
            </Array>
          </mxGeometry>
        </mxCell>
        <mxCell id="6xLC5VvGVvwtOd83B3L0-19" value="Use" style="endArrow=open;endSize=12;dashed=1;html=1;rounded=0;entryX=1;entryY=0.5;entryDx=0;entryDy=0;exitX=0.577;exitY=0.008;exitDx=0;exitDy=0;exitPerimeter=0;" edge="1" parent="1" source="JPbPp24o7M2_uj4HTOKJ-16">
          <mxGeometry width="160" relative="1" as="geometry">
            <mxPoint x="1069" y="1655" as="sourcePoint" />
            <mxPoint x="420" y="810" as="targetPoint" />
            <Array as="points">
              <mxPoint x="420" y="970" />
            </Array>
          </mxGeometry>
        </mxCell>
        <mxCell id="6xLC5VvGVvwtOd83B3L0-20" value="Use" style="endArrow=open;endSize=12;dashed=1;html=1;rounded=0;entryX=0.663;entryY=1.01;entryDx=0;entryDy=0;exitX=0.084;exitY=0.007;exitDx=0;exitDy=0;exitPerimeter=0;entryPerimeter=0;" edge="1" parent="1" source="JPbPp24o7M2_uj4HTOKJ-41" target="Iw1DIzwXRPO4TeAjE_ug-4">
          <mxGeometry width="160" relative="1" as="geometry">
            <mxPoint x="364" y="1155" as="sourcePoint" />
            <mxPoint x="430" y="820" as="targetPoint" />
            <Array as="points">
              <mxPoint x="460" y="970" />
            </Array>
          </mxGeometry>
        </mxCell>
      </root>
    </mxGraphModel>
  </diagram>
</mxfile>
